/* XPM */
static char *test[] = {
/* columns rows colors chars-per-pixel */
"48 48 30 1 ",
"  c #050303",
". c #181818",
"X c gray17",
"o c gray22",
"O c #717171",
"+ c #727272",
"@ c #B82525",
"# c #F00000",
"$ c red",
"% c #FE0101",
"& c #FF0101",
"* c #FE0202",
"= c #FA0B0B",
"- c #DD3E3E",
"; c #EC2424",
": c #BC7B7B",
"> c #818181",
", c #8E8E8E",
"< c #928A8A",
"1 c #909090",
"2 c gray58",
"3 c #979797",
"4 c gray60",
"5 c #B98181",
"6 c #BD9797",
"7 c #A5A5A5",
"8 c #ACA7A7",
"9 c gray69",
"0 c #B2B2B2",
"q c None",
/* pixels */
"qqqqqqqqqqqqqqqqqqqqqqqqqqqqqqqqqqqqqqqqqqqqqqqq",
"qqqqqqqqqqqqqqqqqqqqqqq$$qqqqqqqqqqqqqqqqqqqqqqq",
"qqqqqqqqqqqqqqqqqqqqqqq$$qqqqqqqqqqqqqqqqqqqqqqq",
"qqqqqqqqqqqqqqqqqqqqqqq$$qqqqqqqqqqqqqqqqqqqqqqq",
"qqqqqqqqqqqqqqqqqqqqqqq$$qqqqqqqqqqqqqqqqqqqqqqq",
"qqqqqqqqqqqqqqqqqqqqqqq$$qqqqqqqqqqqqqqqqqqqqqqq",
"qqqqqqqqqqqqqqqqqqqqqqq$$qqqqqqqqqqqqqqqqqqqqqqq",
"qqqqqqqqqqqqqqqqqqqqqqq$$qqqqqqqqqqqqqqqqqqqqqqq",
"qqqqqqqqqqqqqqqqqqqqqqq$$qqqqqqqqqqqqqqqqqqqqqqq",
"qqqqqqqqqqqqqqqqqqqqqqq$$qqqqqqqqqqqqqqqqqqqqqqq",
"qqqqqqqqqqqqqqqqqqqqqqq$$qqqqqqqqqqqqqqqqqqqqqqq",
"qqqqqqqqqqqqqqqqqqqqqqq$$qqqqqqqqqqqqqqqqqqqqqqq",
"qqqqqqqqqqqqqqqqqqqqqqq$$qqqqqqqqqqqqqqqqqqqqqqq",
"qqqqqqqqqqqqqqqqqqqqqqq$$qqqqqqqqqqqqqqqqqqqqqqq",
"qqqqqqqqqqqqqqqqqqqq$$$$$$$$$qqqqqqqqqqqqqqqqqqq",
"qqqqqqqqqqqqqqqqqq$$$$$$$$$$$$qqqqqqqqqqqqqqqqqq",
"qqqqqqqqqqqqqqqqq$$$qqq$$qqq$$$qqqqqqqqqqqqqqqqq",
"qqqqqqqqqqqqqqqq$$qqqqq$$qqqqq$$qqqqqqqqqqqqqqqq",
"qqqqqqqqqqqqqqq$$qqqqqq$$qqqqqq$$qqqqqqqqqqqqqqq",
"qqqqqqqqqqqqqqq$$qqqqqq$$qqqqqqq$$qqqqqqqqqqqqqq",
"qqqqqqqqqqqqqq$$qqqqqqq$$qqqqqqq$$qqqqqqqqqqqqqq",
"qqqqqqqqqqqqqq$$qqqqqqq$$qqqqqqq$$qqqqqqqqqqqqqq",
"qqqqqqqqqqqqqq$qqqqqqqq$$qqqqqqqq$$qqqqqqqqqqqqq",
"q$$$$$$$$$$$$$$$$$$$$$$$$=$$$$$$$$$$$$$$$$$$$$$q",
"q$$$$$$$$$$$$$$$$$$$$$$$$06@#$$$$$$$$$$$$$$$$$$q",
"qqqqqqqqqqqqqq$qqqqqqqq$$08 <qqqq$$qqqqqqqqqqqqq",
"qqqqqqqqqqqqqq$$qqqqqqq$$0XoO77qq$$qqqqqqqqqqqqq",
"qqqqqqqqqqqqqq$$qqqqqqq$$q.3,277-$qqqqqqqqqqqqqq",
"qqqqqqqqqqqqqq$$qqqqqqq$$qqq77777:qqqqqqqqqqqqqq",
"qqqqqqqqqqqqqqq$$qqqqqq$$qqqqq77777qqqqqqqqqqqqq",
"qqqqqqqqqqqqqqqq$$qqqqq$$qqqqq;577777qqqqqqqqqqq",
"qqqqqqqqqqqqqqqq$$$qqqq$$qqqq$$$q777777qqqqqqqqq",
"qqqqqqqqqqqqqqqqqq$$$qq$$qq$$$$qqq777777qqqqqqqq",
"qqqqqqqqqqqqqqqqqqq$$$$$$$$$$qqqqqqq777777qqqqqq",
"qqqqqqqqqqqqqqqqqqqqq$$$$$$qqqqqqqqqq777777qqqqq",
"qqqqqqqqqqqqqqqqqqqqqqq$$qqqqqqqqqqqqqq777774qqq",
"qqqqqqqqqqqqqqqqqqqqqqq$$qqqqqqqqqqqqqqq7777O7qq",
"qqqqqqqqqqqqqqqqqqqqqqq$$qqqqqqqqqqqqqqqqq7>1qqq",
"qqqqqqqqqqqqqqqqqqqqqqq$$qqqqqqqqqqqqqqqqqq>qqqq",
"qqqqqqqqqqqqqqqqqqqqqqq$$qqqqqqqqqqqqqqqqqqqqqqq",
"qqqqqqqqqqqqqqqqqqqqqqq$$qqqqqqqqqqqqqqqqqqqqqqq",
"qqqqqqqqqqqqqqqqqqqqqqq$$qqqqqqqqqqqqqqqqqqqqqqq",
"qqqqqqqqqqqqqqqqqqqqqqq$$qqqqqqqqqqqqqqqqqqqqqqq",
"qqqqqqqqqqqqqqqqqqqqqqq$$qqqqqqqqqqqqqqqqqqqqqqq",
"qqqqqqqqqqqqqqqqqqqqqqq$$qqqqqqqqqqqqqqqqqqqqqqq",
"qqqqqqqqqqqqqqqqqqqqqqq$$qqqqqqqqqqqqqqqqqqqqqqq",
"qqqqqqqqqqqqqqqqqqqqqqq$$qqqqqqqqqqqqqqqqqqqqqqq",
"qqqqqqqqqqqqqqqqqqqqqqqqqqqqqqqqqqqqqqqqqqqqqqqq"
};
